<?xml version="1.0" encoding="UTF-8"?>
<svg id="Layer_2" data-name="Layer 2" xmlns="http://www.w3.org/2000/svg" viewBox="0 0 1787.37 434.44">
  <defs>
    <style>
      .cls-1 {
        fill: #f4f4f5;
      }

      .cls-2 {
        fill: #6345f5;
      }
    </style>
  </defs>
  <g id="Layer_1-2" data-name="Layer 1">
    <g>
      <g>
        <path class="cls-1" d="M269.97,429.5h-79.76v-161.37c0-49.7-16.57-72.4-55.22-72.4s-55.22,22.7-55.22,72.4v161.37H0V0h79.76v133.15c15.34-10.43,33.75-15.34,55.22-15.34,81.6,0,134.99,50.31,134.99,150.33v161.37Z"/>
        <path class="cls-1" d="M811.65,276.11c-1.84-85.29,73.01-160.14,158.3-158.3,30.06,0,55.83,7.98,77.31,23.32V0h80.38v276.11c1.84,85.28-72.4,160.14-157.69,158.3-85.29,1.84-160.14-73.02-158.3-158.3ZM913.5,333.78c14.73,15.34,33.13,22.7,55.83,22.7s41.11-7.36,56.45-22.7c15.34-15.34,22.7-34.97,22.7-57.67s-7.36-41.73-22.7-57.07c-15.34-15.34-33.75-23.31-56.45-23.31s-41.11,7.98-55.83,23.31c-14.72,15.34-22.09,34.36-22.09,57.07s7.36,42.34,22.09,57.67Z"/>
        <path class="cls-1" d="M1438.48,122.71v161.37c0,100.01-53.38,150.33-134.99,150.33s-134.98-50.31-134.98-150.33V122.71h79.76v161.37c0,49.7,16.57,72.4,55.22,72.4s55.22-22.7,55.22-72.4V122.71h79.76Z"/>
        <path class="cls-1" d="M1484.27,0h79.76v223.95l101.85-101.24h101.85l-116.58,117.81,136.21,188.98h-88.97l-101.24-138.67-33.13,33.13v105.53h-79.76V0Z"/>
      </g>
      <path class="cls-2" d="M522.71,0h-79.76l-155.85,429.5h81.6l114.12-321.51,62.5,176.07,59.67-57.28L522.71,0ZM692.31,0v142.97l79.76-76.57V0h-79.76ZM573.6,363.7l23.36,65.8h81.6l-44.8-123.47-60.16,57.67ZM692.31,429.5h79.76V173.43l-79.76,76.46v179.6Z"/>
    </g>
  </g>
</svg>