<svg width="20" height="20" viewBox="0 0 20 20" fill="none" xmlns="http://www.w3.org/2000/svg">
<path d="M16.6676 13.5C17.3214 13.0476 17.8144 12.3992 18.0756 11.6484C18.3368 10.8975 18.3526 10.0831 18.1208 9.32271C17.8889 8.56229 17.4214 7.89523 16.7858 7.41782C16.1501 6.94041 15.3792 6.67736 14.5843 6.66664H13.0843C12.8324 5.81687 12.3902 5.03568 11.7912 4.38238C11.1922 3.72909 10.4523 3.22088 9.6275 2.89634C8.80273 2.5718 7.91486 2.43947 7.0313 2.5094C6.14774 2.57932 5.29174 2.84967 4.52829 3.29991C3.76485 3.75015 3.11403 4.36844 2.62528 5.10782C2.13653 5.8472 1.82269 6.68823 1.7076 7.56705C1.5925 8.44586 1.67918 9.33935 1.96105 10.1797C2.24291 11.02 2.71256 11.785 3.33431 12.4166" stroke="white" stroke-width="1.66667" stroke-linecap="round" stroke-linejoin="round"/>
<path d="M10 16.6665C11.3807 16.6665 12.5 15.5472 12.5 14.1665C12.5 12.7858 11.3807 11.6665 10 11.6665C8.61929 11.6665 7.5 12.7858 7.5 14.1665C7.5 15.5472 8.61929 16.6665 10 16.6665Z" stroke="white" stroke-width="1.66667" stroke-linejoin="round"/>
<path d="M10 10.8335V11.6668" stroke="white" stroke-width="1.66667" stroke-linecap="round" stroke-linejoin="round"/>
<path d="M10 16.6665V17.4998" stroke="white" stroke-width="1.66667" stroke-linecap="round" stroke-linejoin="round"/>
<path d="M13.3333 14.1665H12.5" stroke="white" stroke-width="1.66667" stroke-linecap="round" stroke-linejoin="round"/>
<path d="M7.5013 14.1665H6.66797" stroke="white" stroke-width="1.66667" stroke-linecap="round" stroke-linejoin="round"/>
<path d="M12.5009 11.6665L11.7676 12.3998" stroke="white" stroke-width="1.66667" stroke-linecap="round" stroke-linejoin="round"/>
<path d="M8.23333 15.9331L7.5 16.6664" stroke="white" stroke-width="1.66667" stroke-linecap="round" stroke-linejoin="round"/>
<path d="M12.5009 16.6664L11.7676 15.9331" stroke="white" stroke-width="1.66667" stroke-linecap="round" stroke-linejoin="round"/>
<path d="M8.23333 12.3998L7.5 11.6665" stroke="white" stroke-width="1.66667" stroke-linecap="round" stroke-linejoin="round"/>
</svg>
