<svg width="1024" height="825" viewBox="0 0 1024 825" fill="none" xmlns="http://www.w3.org/2000/svg">
<rect x="421.846" y="321.56" width="180.302" height="182.4" rx="40.4875" fill="#1A181C" stroke="#262428" stroke-width="4.26184"/>
<rect x="757.418" y="344.631" width="134.161" height="135.734" rx="36.2256" fill="#1A181C" stroke="#262428" stroke-width="4.26184"/>
<rect x="132.422" y="346.729" width="134.161" height="135.734" rx="36.2256" fill="#1A181C" stroke="#262428" stroke-width="4.26184"/>
<rect x="444.924" y="32.1309" width="134.161" height="135.734" rx="36.2256" fill="#1A181C" stroke="#262428" stroke-width="4.26184"/>
<rect x="444.924" y="657.134" width="134.161" height="135.734" rx="36.2256" fill="#1A181C" stroke="#262428" stroke-width="4.26184"/>
<line x1="264.518" y1="415.872" x2="423.914" y2="415.872" stroke="#262428" stroke-width="4.26184"/>
<line x1="515.988" y1="658.621" x2="515.988" y2="503.064" stroke="#262428" stroke-width="4.26184"/>
<line x1="513.853" y1="321.547" x2="513.853" y2="164.248" stroke="#262428" stroke-width="4.26184"/>
<line x1="604.291" y1="415.872" x2="759.493" y2="415.872" stroke="#262428" stroke-width="4.26184"/>
<path d="M545.287 87.8538L537.296 92.2488L529.305 99.8402V125.891H540.492C543.14 125.891 545.287 123.744 545.287 121.096V87.8538Z" fill="#4CAF50"/>
<path d="M478.164 87.8538L483.94 90.5867L494.146 99.8402V125.891H482.959C480.31 125.891 478.164 123.744 478.164 121.096V87.8538Z" fill="#1E88E5"/>
<path d="M529.303 79.8645L511.723 93.0496L494.143 79.8645L492.545 89.134L494.143 99.8419L511.723 113.027L529.303 99.8419L530.901 89.134L529.303 79.8645Z" fill="#E53935"/>
<path d="M478.164 81.618V87.8542L494.146 99.8406V79.8632L489.153 76.1219C487.964 75.2301 486.519 74.749 485.033 74.749C481.239 74.749 478.164 77.8239 478.164 81.618Z" fill="#C62828"/>
<path d="M545.287 81.618V87.8542L529.305 99.8406V79.8632L534.297 76.1219C535.486 75.2301 536.931 74.749 538.418 74.749C542.212 74.749 545.287 77.8239 545.287 81.618Z" fill="#FBC02D"/>
<g clip-path="url(#clip0_199_800)">
<path d="M511.726 737.206L499.2 724.68L511.726 712.154V686.323L475.952 722.097C475.268 722.782 474.883 723.711 474.883 724.68C474.883 725.648 475.268 726.577 475.952 727.262L511.726 763.036C511.726 763.036 517.206 759.383 517.206 750.251C516.922 745.404 514.989 740.801 511.726 737.206Z" fill="#2684FF"/>
<path d="M501.156 722.245L501.395 722.484L511.726 712.154V686.323L492.363 705.684C493.819 711.87 496.848 717.574 501.156 722.245Z" fill="#1D78F2"/>
<path d="M503.798 719.721L503.981 719.903L511.729 712.155V686.323L495.531 702.517C496.547 708.936 499.421 714.917 503.798 719.721Z" fill="#126AE5"/>
<path d="M511.725 712.154V686.323L498.939 699.109C499.219 705.895 501.922 712.355 506.558 717.319L511.725 712.154Z" fill="#0B60DA"/>
<path d="M502.594 699.109C502.594 707.777 508.817 714.398 509.142 714.736L511.726 712.154V686.323L502.919 695.131C502.7 696.445 502.592 697.776 502.594 699.109Z" fill="#0154CE"/>
<path d="M511.726 712.154L524.25 724.68L511.726 737.206V763.036L547.498 727.262C548.182 726.577 548.567 725.648 548.567 724.68C548.567 723.711 548.182 722.782 547.498 722.097L511.726 686.323C511.726 686.323 506.246 689.976 506.246 699.109C506.53 703.955 508.463 708.559 511.726 712.154Z" fill="#2482FD"/>
<path d="M522.291 727.115L522.052 726.875L511.723 737.206V763.037L531.084 743.676C529.628 737.49 526.599 731.786 522.291 727.115Z" fill="#1D78F2"/>
<path d="M519.651 729.639L519.469 729.457L511.723 737.205V763.037L527.916 746.843C526.901 740.424 524.027 734.444 519.651 729.639Z" fill="#126AE5"/>
<path d="M511.723 737.207V763.037L524.508 750.252C524.228 743.466 521.524 737.005 516.888 732.042L511.723 737.207Z" fill="#0B60DA"/>
<path d="M520.855 750.251C520.855 741.583 514.632 734.961 514.305 734.624L511.723 737.206V763.037L520.53 754.229C520.748 752.914 520.856 751.584 520.855 750.251Z" fill="#0154CE"/>
<path d="M511.727 737.206L499.2 724.68H478.85V730.16L511.727 763.037C511.727 763.037 517.206 759.384 517.206 750.251C516.923 745.405 514.989 740.801 511.727 737.206Z" fill="#2684FF"/>
</g>
<path d="M210.488 380.003C209.686 380.001 208.751 380.058 207.602 380.155L170.184 382.897C167.166 383.156 166.115 385.115 166.115 387.462V428.181C166.115 430.009 166.77 431.572 168.346 433.661L177.142 445.015C178.586 446.842 179.9 447.234 182.66 447.104L226.115 444.491C229.79 444.233 230.842 442.536 230.842 439.666V393.858C230.842 392.291 230.183 391.902 228.213 390.466L216.269 382.113C214.103 380.548 212.895 380.01 210.488 380.003ZM209.713 383.585C212.081 383.623 213.431 384.532 214.478 385.341L220.721 389.834C220.986 389.965 221.651 390.756 220.852 390.756L183.254 393.003C179.267 393.269 178.469 393.399 176.346 391.683L171.165 387.586C170.635 387.056 170.901 386.396 172.228 386.266L208.634 383.625C209.016 383.592 209.375 383.58 209.713 383.585ZM224.455 395.597C225.547 395.707 226.047 396.595 226.047 398.077V436.705C226.047 438.402 225.783 439.84 223.425 439.968L182.704 442.319C180.347 442.447 179.3 441.664 179.3 439.575V400.689C179.3 398.993 179.824 398.206 181.396 398.077L223.952 395.6C224.132 395.583 224.299 395.582 224.455 395.597ZM220.054 402.178L211.664 402.777C209.697 403.012 208.667 403.976 208.667 405.175L212.263 405.774V423.754L198.479 403.377L189.131 404.201C187.286 404.431 186.64 406.024 186.904 407.197L190.088 407.572V432.743L188.889 433.343C186.492 433.942 187.091 435.141 187.091 435.74L196.681 435.141C199.677 434.541 199.677 432.743 199.677 432.743L194.883 431.545V412.367L207.99 432.708C209.559 434.661 210.167 435.74 212.263 435.74C214.061 435.74 215.859 435.141 217.057 433.942V405.175L218.727 404.854C220.054 404.576 220.653 403.377 220.054 402.178Z" fill="white"/>
<g clip-path="url(#clip1_199_800)">
<path d="M826.741 419.045C838.83 419.045 848.63 409.232 848.63 397.127C848.63 385.022 838.83 375.209 826.741 375.209C814.652 375.209 804.852 385.022 804.852 397.127C804.852 409.232 814.652 419.045 826.741 419.045Z" fill="#036C70"/>
<path d="M844.981 437.31C856.063 437.31 865.047 428.315 865.047 417.219C865.047 406.123 856.063 397.127 844.981 397.127C833.9 397.127 824.916 406.123 824.916 417.219C824.916 428.315 833.9 437.31 844.981 437.31Z" fill="#1A9BA1"/>
<path d="M829.48 451.921C838.043 451.921 844.985 444.97 844.985 436.396C844.985 427.822 838.043 420.871 829.48 420.871C820.916 420.871 813.975 427.822 813.975 436.396C813.975 444.97 820.916 451.921 829.48 451.921Z" fill="#37C6D0"/>
<path opacity="0.1" d="M830.387 394.99V433.967C830.377 435.322 829.558 436.538 828.307 437.054C827.909 437.223 827.481 437.31 827.048 437.31H813.988C813.97 436.999 813.97 436.707 813.97 436.396C813.963 436.092 813.976 435.787 814.006 435.483C814.34 429.645 817.932 424.493 823.291 422.168V418.771C811.365 416.878 803.228 405.663 805.118 393.722C805.131 393.639 805.145 393.556 805.159 393.474C805.25 392.858 805.378 392.248 805.542 391.647H827.048C828.889 391.654 830.38 393.147 830.387 394.99Z" fill="black"/>
<path opacity="0.2" d="M825.225 393.473H805.159C803.132 405.393 811.14 416.702 823.045 418.732C823.405 418.793 823.767 418.846 824.13 418.889C818.475 421.574 814.355 429.2 814.005 435.483C813.974 435.786 813.962 436.091 813.968 436.396C813.968 436.706 813.968 436.999 813.986 437.309C814.019 437.923 814.098 438.534 814.223 439.136H825.223C826.575 439.127 827.791 438.306 828.306 437.053C828.474 436.655 828.561 436.226 828.561 435.793V396.816C828.554 394.973 827.065 393.481 825.225 393.473Z" fill="black"/>
<path opacity="0.2" d="M825.225 393.473H805.159C803.133 405.395 811.141 416.704 823.047 418.733C823.291 418.774 823.535 418.812 823.78 418.845C818.308 421.724 814.349 429.331 814.006 435.483H825.225C827.062 435.469 828.549 433.98 828.563 432.14V396.816C828.556 394.973 827.065 393.48 825.225 393.473Z" fill="black"/>
<path opacity="0.2" d="M823.406 393.473H805.165C803.251 404.727 810.294 415.565 821.344 418.372C817.16 423.159 814.594 429.148 814.011 435.483H823.406C825.246 435.476 826.737 433.983 826.744 432.14V396.816C826.743 394.97 825.249 393.474 823.406 393.473Z" fill="black"/>
<path d="M789.957 393.473H823.4C825.247 393.473 826.744 394.972 826.744 396.821V430.308C826.744 432.157 825.247 433.656 823.4 433.656H789.957C788.11 433.656 786.613 432.157 786.613 430.308V396.821C786.613 394.972 788.11 393.473 789.957 393.473Z" fill="url(#paint0_linear_199_800)"/>
<path d="M801.549 413.156C800.765 412.635 800.111 411.942 799.635 411.13C799.175 410.281 798.945 409.325 798.969 408.359C798.928 407.051 799.369 405.774 800.208 404.77C801.089 403.765 802.229 403.021 803.502 402.619C804.954 402.14 806.474 401.904 808.002 401.921C810.012 401.847 812.019 402.129 813.931 402.752V406.953C813.1 406.449 812.195 406.079 811.249 405.857C810.223 405.605 809.17 405.479 808.114 405.481C807 405.44 805.892 405.674 804.89 406.164C804.117 406.498 803.615 407.26 803.614 408.104C803.61 408.615 803.807 409.108 804.161 409.477C804.579 409.912 805.074 410.266 805.62 410.522C806.228 410.825 807.14 411.228 808.356 411.731C808.49 411.773 808.621 411.826 808.747 411.888C809.944 412.357 811.098 412.927 812.198 413.592C813.031 414.106 813.73 414.811 814.237 415.649C814.758 416.598 815.01 417.672 814.967 418.754C815.026 420.097 814.616 421.418 813.807 422.491C813 423.477 811.922 424.204 810.706 424.581C809.276 425.029 807.783 425.246 806.284 425.223C804.939 425.23 803.597 425.12 802.271 424.895C801.152 424.711 800.059 424.39 799.019 423.938V419.508C800.013 420.22 801.125 420.751 802.302 421.079C803.476 421.445 804.696 421.641 805.925 421.66C807.062 421.732 808.198 421.491 809.208 420.962C809.916 420.562 810.346 419.805 810.328 418.991C810.333 418.425 810.109 417.881 809.708 417.483C809.209 416.992 808.631 416.589 807.999 416.29C807.269 415.925 806.195 415.443 804.776 414.845C803.647 414.391 802.566 413.825 801.549 413.156Z" fill="white"/>
</g>
<g filter="url(#filter0_f_199_800)">
<rect x="269.864" y="546.748" width="105.057" height="106.546" rx="28.7498" fill="#1A181C" stroke="#262428" stroke-width="2.13092"/>
<path d="M347.977 627.723C347.027 629.375 347.448 630.706 345.855 631.624C344.262 632.544 342.428 633.05 340.519 633.05H303.618C301.711 633.05 299.879 632.544 298.284 631.626C296.689 630.708 297.11 629.375 296.16 627.723L309.78 611.741H334.357L347.977 627.723Z" fill="#1E88E5"/>
<path d="M328.222 570.897C330.127 570.894 331.958 569.626 333.551 570.546C335.144 571.467 336.499 572.801 337.453 574.454L355.903 606.411C356.856 608.062 357.336 609.904 357.338 611.742C357.339 613.583 355.088 615.423 354.131 617.071L334.372 611.734L322.076 590.438L328.222 570.897Z" fill="#FBC02D"/>
<path d="M357.338 611.741C357.338 613.588 356.858 615.417 355.899 617.069L349.382 628.345C348.441 629.73 347.234 630.831 345.849 631.63L334.359 611.741H357.338Z" fill="#E53935"/>
<path d="M290.012 617.071C289.056 615.423 286.805 613.583 286.805 611.743C286.806 609.904 287.284 608.062 288.24 606.409L306.69 574.452C307.643 572.801 308.998 571.466 310.589 570.546C312.182 569.624 314.015 570.892 315.92 570.895L322.063 590.445L309.771 611.735L290.012 617.071Z" fill="#4CAF50"/>
<path d="M309.783 611.741L298.294 631.63C296.909 630.831 295.701 629.73 294.76 628.345L288.243 617.069C287.284 615.417 286.805 613.588 286.805 611.741H309.783Z" fill="#1565C0"/>
<path d="M333.549 570.543L322.077 590.432L310.588 570.543C311.973 569.744 313.536 569.247 315.205 569.141L328.221 569.123C330.139 569.123 331.968 569.62 333.549 570.543Z" fill="#2E7D32"/>
</g>
<g filter="url(#filter1_f_199_800)">
<rect x="269.864" y="171.706" width="105.057" height="106.546" rx="28.7498" fill="#1A181C" stroke="#262428" stroke-width="2.13092"/>
<g clip-path="url(#clip2_199_800)">
<mask id="mask0_199_800" style="mask-type:luminance" maskUnits="userSpaceOnUse" x="301" y="197" width="43" height="59">
<path d="M327.853 197.065H305.46C303.286 197.065 301.508 198.844 301.508 201.017V251.073C301.508 253.246 303.286 255.024 305.46 255.024H339.708C341.881 255.024 343.66 253.246 343.66 251.073V212.872L327.853 197.065Z" fill="white"/>
</mask>
<g mask="url(#mask0_199_800)">
<path d="M327.853 197.065H305.46C303.286 197.065 301.508 198.844 301.508 201.017V251.073C301.508 253.246 303.286 255.024 305.46 255.024H339.708C341.881 255.024 343.66 253.246 343.66 251.073V212.872L334.439 206.286L327.853 197.065Z" fill="#0F9D58"/>
</g>
<mask id="mask1_199_800" style="mask-type:luminance" maskUnits="userSpaceOnUse" x="301" y="197" width="43" height="59">
<path d="M327.853 197.065H305.46C303.286 197.065 301.508 198.844 301.508 201.017V251.073C301.508 253.246 303.286 255.024 305.46 255.024H339.708C341.881 255.024 343.66 253.246 343.66 251.073V212.872L327.853 197.065Z" fill="white"/>
</mask>
<g mask="url(#mask1_199_800)">
<path d="M312.047 225.385V244.485H333.123V225.385H312.047ZM321.268 241.851H314.681V238.558H321.268V241.851ZM321.268 236.582H314.681V233.289H321.268V236.582ZM321.268 231.313H314.681V228.02H321.268V231.313ZM330.488 241.851H323.902V238.558H330.488V241.851ZM330.488 236.582H323.902V233.289H330.488V236.582ZM330.488 231.313H323.902V228.02H330.488V231.313Z" fill="#F1F1F1"/>
</g>
<mask id="mask2_199_800" style="mask-type:luminance" maskUnits="userSpaceOnUse" x="301" y="197" width="43" height="59">
<path d="M327.853 197.065H305.46C303.286 197.065 301.508 198.844 301.508 201.017V251.073C301.508 253.246 303.286 255.024 305.46 255.024H339.708C341.881 255.024 343.66 253.246 343.66 251.073V212.872L327.853 197.065Z" fill="white"/>
</mask>
<g mask="url(#mask2_199_800)">
<path d="M329.002 211.715L343.653 226.363V212.871L329.002 211.715Z" fill="url(#paint1_linear_199_800)"/>
</g>
<mask id="mask3_199_800" style="mask-type:luminance" maskUnits="userSpaceOnUse" x="301" y="197" width="43" height="59">
<path d="M327.853 197.065H305.46C303.286 197.065 301.508 198.844 301.508 201.017V251.073C301.508 253.246 303.286 255.024 305.46 255.024H339.708C341.881 255.024 343.66 253.246 343.66 251.073V212.872L327.853 197.065Z" fill="white"/>
</mask>
<g mask="url(#mask3_199_800)">
<path d="M327.85 197.065V208.921C327.85 211.104 329.618 212.872 331.801 212.872H343.657L327.85 197.065Z" fill="#87CEAC"/>
</g>
<mask id="mask4_199_800" style="mask-type:luminance" maskUnits="userSpaceOnUse" x="301" y="197" width="43" height="59">
<path d="M327.853 197.065H305.46C303.286 197.065 301.508 198.844 301.508 201.017V251.073C301.508 253.246 303.286 255.024 305.46 255.024H339.708C341.881 255.024 343.66 253.246 343.66 251.073V212.872L327.853 197.065Z" fill="white"/>
</mask>
<g mask="url(#mask4_199_800)">
<path d="M305.46 197.065C303.286 197.065 301.508 198.844 301.508 201.017V201.346C301.508 199.173 303.286 197.395 305.46 197.395H327.853V197.065H305.46Z" fill="white" fill-opacity="0.2"/>
</g>
<mask id="mask5_199_800" style="mask-type:luminance" maskUnits="userSpaceOnUse" x="301" y="197" width="43" height="59">
<path d="M327.853 197.065H305.46C303.286 197.065 301.508 198.844 301.508 201.017V251.073C301.508 253.246 303.286 255.024 305.46 255.024H339.708C341.881 255.024 343.66 253.246 343.66 251.073V212.872L327.853 197.065Z" fill="white"/>
</mask>
<g mask="url(#mask5_199_800)">
<path d="M339.708 254.694H305.46C303.286 254.694 301.508 252.916 301.508 250.742V251.071C301.508 253.245 303.286 255.023 305.46 255.023H339.708C341.881 255.023 343.66 253.245 343.66 251.071V250.742C343.66 252.916 341.881 254.694 339.708 254.694Z" fill="#263238" fill-opacity="0.2"/>
</g>
<mask id="mask6_199_800" style="mask-type:luminance" maskUnits="userSpaceOnUse" x="301" y="197" width="43" height="59">
<path d="M327.853 197.065H305.46C303.286 197.065 301.508 198.844 301.508 201.017V251.073C301.508 253.246 303.286 255.024 305.46 255.024H339.708C341.881 255.024 343.66 253.246 343.66 251.073V212.872L327.853 197.065Z" fill="white"/>
</mask>
<g mask="url(#mask6_199_800)">
<path d="M331.801 212.871C329.618 212.871 327.85 211.103 327.85 208.92V209.249C327.85 211.432 329.618 213.201 331.801 213.201H343.657V212.871H331.801Z" fill="#263238" fill-opacity="0.1"/>
</g>
<path d="M327.853 197.065H305.46C303.286 197.065 301.508 198.844 301.508 201.017V251.073C301.508 253.246 303.286 255.024 305.46 255.024H339.708C341.881 255.024 343.66 253.246 343.66 251.073V212.872L327.853 197.065Z" fill="url(#paint2_radial_199_800)"/>
</g>
</g>
<g filter="url(#filter2_f_199_800)">
<rect x="649.167" y="171.706" width="105.057" height="106.546" rx="28.7498" fill="#1A181C" stroke="#262428" stroke-width="2.13092"/>
<g clip-path="url(#clip3_199_800)">
<path d="M685.54 233.243C685.54 236.428 682.967 239.002 679.782 239.002C676.597 239.002 674.023 236.428 674.023 233.243C674.023 230.059 676.597 227.485 679.782 227.485H685.54V233.243ZM688.42 233.243C688.42 230.059 690.994 227.485 694.178 227.485C697.363 227.485 699.937 230.059 699.937 233.243V247.64C699.937 250.824 697.363 253.398 694.178 253.398C690.994 253.398 688.42 250.824 688.42 247.64V233.243Z" fill="#E01E5A"/>
<path d="M694.181 210.121C690.996 210.121 688.422 207.547 688.422 204.363C688.422 201.178 690.996 198.604 694.181 198.604C697.365 198.604 699.939 201.178 699.939 204.363V210.121H694.181ZM694.181 213.044C697.365 213.044 699.939 215.618 699.939 218.802C699.939 221.987 697.365 224.561 694.181 224.561H679.741C676.556 224.561 673.982 221.987 673.982 218.802C673.982 215.618 676.556 213.044 679.741 213.044H694.181Z" fill="#36C5F0"/>
<path d="M717.254 218.802C717.254 215.618 719.828 213.044 723.012 213.044C726.197 213.044 728.771 215.618 728.771 218.802C728.771 221.987 726.197 224.561 723.012 224.561H717.254V218.802ZM714.374 218.802C714.374 221.987 711.801 224.561 708.616 224.561C705.431 224.561 702.857 221.987 702.857 218.802V204.363C702.857 201.178 705.431 198.604 708.616 198.604C711.801 198.604 714.374 201.178 714.374 204.363V218.802Z" fill="#2EB67D"/>
<path d="M708.616 241.881C711.801 241.881 714.374 244.455 714.374 247.64C714.374 250.824 711.801 253.398 708.616 253.398C705.431 253.398 702.857 250.824 702.857 247.64V241.881H708.616ZM708.616 239.002C705.431 239.002 702.857 236.428 702.857 233.243C702.857 230.059 705.431 227.485 708.616 227.485H723.056C726.24 227.485 728.814 230.059 728.814 233.243C728.814 236.428 726.24 239.002 723.056 239.002H708.616Z" fill="#ECB22E"/>
</g>
</g>
<g filter="url(#filter3_f_199_800)">
<rect x="649.167" y="546.748" width="105.057" height="106.546" rx="28.7498" fill="#1A181C" stroke="#262428" stroke-width="2.13092"/>
<g clip-path="url(#clip4_199_800)">
<path d="M723.164 571.253H680.653C675.622 571.253 671.543 575.332 671.543 580.363V622.875C671.543 627.906 675.622 631.985 680.653 631.985H723.164C728.196 631.985 732.274 627.906 732.274 622.875V580.363C732.274 575.332 728.196 571.253 723.164 571.253Z" fill="#2D8CFF"/>
<path d="M722.309 613.6C723.258 613.837 724.088 613.362 724.563 612.651C724.8 612.295 724.8 611.702 724.8 610.397V592.486C724.8 591.181 724.8 590.707 724.563 590.232C724.207 589.283 723.258 588.928 722.309 589.283C719.818 590.944 714.362 595.807 714.243 597.824C714.148 598.18 714.148 598.773 714.148 599.603V604.11C714.148 605.059 714.148 605.415 714.243 605.89C714.362 606.839 714.717 607.669 715.192 608.143C716.615 609.211 721.36 613.481 722.427 613.481L722.309 613.6ZM679.133 593.435C679.133 591.656 679.133 590.707 679.489 590.232C679.726 589.758 680.438 589.283 680.793 588.928C681.268 588.572 682.098 588.572 683.996 588.572H699.297C703.805 588.572 706.059 588.572 707.838 589.521C709.143 590.47 710.566 591.3 711.396 593.079C712.345 594.858 712.345 597.112 712.345 601.619V609.685C712.345 611.465 712.345 612.414 711.989 612.888C711.752 613.362 711.04 613.837 710.685 614.193C710.21 614.549 709.38 614.549 707.482 614.549H692.181C687.673 614.549 685.419 614.549 683.64 613.6C682.335 612.651 680.912 611.82 680.082 610.041C679.133 608.262 679.133 606.008 679.133 601.501V593.435Z" fill="white"/>
</g>
</g>
<path d="M494.2 389.715L472.114 451.939H456.32L486.482 368.816H501.919L517.845 412.707L506.297 423.794L494.2 389.717V389.715ZM516.287 451.937L511.767 439.204L523.409 428.042L532.081 451.937H516.287ZM550.18 451.937H534.743V417.178L550.18 402.379V451.937ZM550.18 381.667L534.743 396.486V368.816H550.18V381.667Z" fill="white"/>
<defs>
<filter id="filter0_f_199_800" x="260.275" y="537.159" width="124.235" height="125.724" filterUnits="userSpaceOnUse" color-interpolation-filters="sRGB">
<feFlood flood-opacity="0" result="BackgroundImageFix"/>
<feBlend mode="normal" in="SourceGraphic" in2="BackgroundImageFix" result="shape"/>
<feGaussianBlur stdDeviation="4.26184" result="effect1_foregroundBlur_199_800"/>
</filter>
<filter id="filter1_f_199_800" x="260.275" y="162.117" width="124.235" height="125.724" filterUnits="userSpaceOnUse" color-interpolation-filters="sRGB">
<feFlood flood-opacity="0" result="BackgroundImageFix"/>
<feBlend mode="normal" in="SourceGraphic" in2="BackgroundImageFix" result="shape"/>
<feGaussianBlur stdDeviation="4.26184" result="effect1_foregroundBlur_199_800"/>
</filter>
<filter id="filter2_f_199_800" x="639.578" y="162.117" width="124.235" height="125.724" filterUnits="userSpaceOnUse" color-interpolation-filters="sRGB">
<feFlood flood-opacity="0" result="BackgroundImageFix"/>
<feBlend mode="normal" in="SourceGraphic" in2="BackgroundImageFix" result="shape"/>
<feGaussianBlur stdDeviation="4.26184" result="effect1_foregroundBlur_199_800"/>
</filter>
<filter id="filter3_f_199_800" x="639.578" y="537.159" width="124.235" height="125.724" filterUnits="userSpaceOnUse" color-interpolation-filters="sRGB">
<feFlood flood-opacity="0" result="BackgroundImageFix"/>
<feBlend mode="normal" in="SourceGraphic" in2="BackgroundImageFix" result="shape"/>
<feGaussianBlur stdDeviation="4.26184" result="effect1_foregroundBlur_199_800"/>
</filter>
<linearGradient id="paint0_linear_199_800" x1="793.585" y1="390.857" x2="819.824" y2="436.243" gradientUnits="userSpaceOnUse">
<stop stop-color="#058F92"/>
<stop offset="0.5" stop-color="#038489"/>
<stop offset="1" stop-color="#026D71"/>
</linearGradient>
<linearGradient id="paint1_linear_199_800" x1="1061.63" y1="337.482" x2="1061.63" y2="1676.7" gradientUnits="userSpaceOnUse">
<stop stop-color="#263238" stop-opacity="0.2"/>
<stop offset="1" stop-color="#263238" stop-opacity="0.02"/>
</linearGradient>
<radialGradient id="paint2_radial_199_800" cx="0" cy="0" r="1" gradientUnits="userSpaceOnUse" gradientTransform="translate(435.047 311.618) scale(6796.93 6796.93)">
<stop stop-color="white" stop-opacity="0.1"/>
<stop offset="1" stop-color="white" stop-opacity="0"/>
</radialGradient>
<clipPath id="clip0_199_800">
<rect width="76.7131" height="76.7131" fill="white" transform="translate(473.367 686.323)"/>
</clipPath>
<clipPath id="clip1_199_800">
<rect width="78.4369" height="76.7131" fill="white" transform="translate(786.613 375.208)"/>
</clipPath>
<clipPath id="clip2_199_800">
<rect width="43.6361" height="59.6657" fill="white" transform="translate(300.762 196.211)"/>
</clipPath>
<clipPath id="clip3_199_800">
<rect width="55.4039" height="55.4039" fill="white" transform="translate(673.674 198.343)"/>
</clipPath>
<clipPath id="clip4_199_800">
<rect width="60.7312" height="60.7312" fill="white" transform="translate(671.543 571.253)"/>
</clipPath>
</defs>
</svg>
