<svg width="302" height="100" viewBox="0 0 302 100" fill="none" xmlns="http://www.w3.org/2000/svg">
<path d="M94.6004 42.0198C93.4404 38.8198 92.0004 35.6998 90.1204 32.6998C88.2604 29.7198 85.9004 26.8398 82.8604 24.4398C79.8404 22.0598 75.8804 20.2598 71.6804 19.9198L70.1204 19.8398C69.5804 19.8598 68.9804 19.8598 68.4204 19.9198C67.2804 20.0398 66.2004 20.2998 65.1804 20.5998C63.1204 21.2398 61.3204 22.1998 59.7404 23.2398C56.9004 25.1198 54.6404 27.2998 52.6004 29.5398C52.6204 29.5798 52.6604 29.5998 52.6804 29.6398L53.1204 30.1998C54.1404 31.5398 56.3604 34.6198 58.3404 37.9398C60.8004 35.5398 64.0004 32.6398 65.3204 31.7998C66.3204 31.1798 67.3004 30.6998 68.1804 30.4398C68.6404 30.3198 69.0604 30.2198 69.4604 30.1998C69.6604 30.1598 69.8404 30.1798 70.0604 30.1598L70.8204 30.1998C72.7804 30.3798 74.7004 31.1798 76.5204 32.5798C80.1404 35.4598 83.0004 40.3598 84.8604 45.5398C86.7604 50.7398 87.8404 56.4198 87.9004 61.8998C87.9004 64.5198 87.5604 67.0398 86.7604 69.1198C85.9804 71.2198 84.0004 72.0198 81.7604 72.0198C78.5004 72.0198 76.1404 70.6198 74.2404 68.6598C72.1604 66.4798 70.2004 64.0398 68.3204 61.4398C66.7604 59.2598 65.2404 56.9998 63.8004 54.6998C61.2604 50.5798 57.8604 45.3598 55.5004 40.9998L50.0004 32.6998C49.3804 31.9198 48.7804 31.1398 48.1204 30.3598C45.9004 27.8398 43.4404 25.3598 40.2604 23.2398C38.6804 22.1998 36.8804 21.2398 34.8204 20.5998C33.8004 20.2998 32.7204 20.0398 31.5804 19.9198C31.2204 19.8798 30.8604 19.8598 30.5004 19.8598C30.2804 19.8598 30.0804 19.8398 29.8804 19.8398L28.3204 19.9198C24.1204 20.2598 20.1604 22.0598 17.1404 24.4398C14.1004 26.8398 11.7404 29.7198 9.88039 32.6998C8.00039 35.6998 6.56039 38.8198 5.40039 42.0198C3.14039 48.4198 1.92039 55.0398 1.90039 61.8798C1.92039 65.4398 2.38039 69.1398 3.82039 72.8198C5.22039 76.4198 7.86039 80.2398 12.0604 82.3598C14.1204 83.4198 16.4604 83.9798 18.7004 83.9798C21.1604 84.0398 23.5004 83.3398 25.3604 82.4398C29.1004 80.5798 31.6804 78.1198 34.0204 75.6398C38.6404 70.6198 42.0604 65.1798 45.2204 59.6398C46.1004 58.1198 46.9404 56.5598 47.7604 54.9798C47.3404 54.1598 46.9204 53.2998 46.4804 52.3998C45.2404 50.3398 43.7004 47.8998 42.5804 46.1998C40.9204 49.1998 39.2004 52.1198 37.4204 55.0198C34.2404 60.0598 30.8204 64.9598 27.0004 68.9798C25.1004 70.9398 23.0004 72.6598 21.1604 73.4798C20.2204 73.8798 19.5004 74.0198 18.8804 73.9798C18.0204 73.9798 17.3004 73.7798 16.6204 73.4198C15.2804 72.7198 14.0204 71.2198 13.2404 69.1198C12.4404 67.0398 12.1004 64.5198 12.1004 61.8998C12.1604 56.4198 13.2404 50.7398 15.1404 45.5398C17.0004 40.3598 19.8604 35.4598 23.4804 32.5798C25.3004 31.1798 27.2204 30.3798 29.1804 30.1998L29.9404 30.1598C30.1604 30.1798 30.3404 30.1598 30.5404 30.1998C30.9404 30.2198 31.3604 30.3198 31.8204 30.4398C32.3404 30.5998 32.9004 30.8198 33.4804 31.1198C33.8804 31.3198 34.2804 31.5398 34.6804 31.7998C36.6804 33.0798 38.6604 34.9598 40.5204 37.0398C41.9604 38.6598 43.3404 40.4598 44.7204 42.2998L50.0004 50.4798C51.5004 53.5798 53.0604 56.6598 54.7804 59.6398C57.9404 65.1798 61.3604 70.6198 65.9804 75.6398C67.3404 77.0998 68.8004 78.5398 70.5204 79.8398C71.7404 80.7998 73.0804 81.6598 74.6404 82.4398C76.5004 83.3398 78.8404 84.0398 81.3004 83.9798C83.5404 83.9798 85.8804 83.4198 87.9404 82.3598C92.1404 80.2398 94.7804 76.4198 96.1804 72.8198C97.6204 69.1398 98.0804 65.4398 98.1004 61.8798C98.0804 55.0398 96.8604 48.4198 94.6004 42.0198Z" fill="white"/>
<path d="M138.664 68V31.6364H145.251V62.478H161.267V68H138.664ZM166.984 68V31.6364H173.571V62.478H189.587V68H166.984ZM202.868 68.5504C201.14 68.5504 199.584 68.2427 198.199 67.6271C196.825 66.9998 195.736 66.0765 194.932 64.8572C194.138 63.638 193.742 62.1347 193.742 60.3473C193.742 58.8085 194.026 57.536 194.594 56.5298C195.162 55.5237 195.938 54.7188 196.92 54.1151C197.903 53.5114 199.009 53.0556 200.241 52.7479C201.483 52.4283 202.768 52.1974 204.093 52.0554C205.691 51.8897 206.988 51.7417 207.982 51.6115C208.976 51.4695 209.698 51.2564 210.148 50.9723C210.61 50.6764 210.841 50.2206 210.841 49.6051V49.4986C210.841 48.161 210.444 47.1252 209.651 46.3913C208.858 45.6574 207.716 45.2905 206.224 45.2905C204.65 45.2905 203.401 45.6338 202.478 46.3203C201.566 47.0069 200.951 47.8177 200.631 48.7528L194.63 47.9006C195.103 46.2434 195.884 44.8584 196.973 43.7457C198.062 42.6212 199.394 41.7808 200.968 41.2244C202.543 40.6562 204.283 40.3722 206.189 40.3722C207.503 40.3722 208.811 40.526 210.113 40.8338C211.415 41.1416 212.604 41.6506 213.682 42.3608C214.759 43.0592 215.623 44.0121 216.274 45.2195C216.937 46.4268 217.268 47.9361 217.268 49.7472V68H211.089V64.2536H210.876C210.486 65.0111 209.935 65.7214 209.225 66.3842C208.526 67.0353 207.645 67.562 206.579 67.9645C205.526 68.3551 204.289 68.5504 202.868 68.5504ZM204.537 63.8274C205.828 63.8274 206.946 63.5729 207.893 63.0639C208.84 62.5431 209.568 61.8565 210.077 61.0043C210.598 60.152 210.858 59.2228 210.858 58.2166V55.0028C210.657 55.1686 210.314 55.3224 209.829 55.4645C209.355 55.6065 208.822 55.7308 208.231 55.8374C207.639 55.9439 207.053 56.0386 206.473 56.1214C205.893 56.2043 205.39 56.2753 204.964 56.3345C204.005 56.4647 203.147 56.6778 202.389 56.9737C201.631 57.2696 201.034 57.6839 200.596 58.2166C200.158 58.7375 199.939 59.4122 199.939 60.2408C199.939 61.4245 200.371 62.3182 201.235 62.9219C202.099 63.5256 203.2 63.8274 204.537 63.8274ZM224.015 31.6364H232.076L242.872 57.9858H243.298L254.093 31.6364H262.155V68H255.834V43.0178H255.496L245.446 67.8935H240.723L230.674 42.9645H230.336V68H224.015V31.6364ZM273.998 68H266.966L279.768 31.6364H287.9L300.72 68H293.689L283.976 39.0938H283.692L273.998 68ZM274.228 53.7422H293.405V59.0334H274.228V53.7422Z" fill="white"/>
</svg>
