<svg width="1024" height="825" viewBox="0 0 1024 825" fill="none" xmlns="http://www.w3.org/2000/svg">
<path d="M205.543 631C197.809 631.011 190.083 630.549 182.417 629.618C119.378 621.931 62.1731 583.16 7.38176 511.072L6.71875 510.199L7.59393 509.496L362.836 219.083L363.658 220.32C380.604 244.883 398.347 258.607 417.945 262.244C448.338 267.894 479.579 248.035 509.786 228.831C540.443 209.433 572.162 189.162 603.668 195.03C623.93 198.788 642.202 212.779 659.494 237.803L800.45 316.631C813.184 315.657 825.996 315.933 838.666 317.456C901.705 325.142 958.91 363.914 1013.7 436.001L1017.28 440.73L799.813 319.056C703.491 326.597 606.028 401.497 511.403 474.385C411.235 551.517 307.912 631 205.543 631ZM10.3255 510.611C64.3477 581.535 120.757 619.725 182.709 627.241C291.442 640.481 402.378 555.178 509.626 472.639C603.429 400.503 700.017 326.209 796.047 317.068L657.584 239.597L657.425 239.354C640.478 214.792 622.736 201.043 603.032 197.406C572.639 191.757 541.398 211.615 511.191 230.819C480.533 250.217 448.842 270.488 417.309 264.62C397.286 260.91 379.252 247.235 362.146 222.818L10.3255 510.611ZM804.348 318.862L1007.76 432.655C954.719 364.229 899.159 327.324 838.321 319.905C827.06 318.556 815.684 318.199 804.348 318.838V318.862Z" fill="url(#paint0_linear_214_1010)" fill-opacity="0.62"/>
<path d="M242.699 570.041C235.603 570.045 228.514 569.608 221.483 568.732C165.684 561.724 115.056 527.099 66.4707 462.843L68.6719 461.461C116.674 525.111 166.798 559.421 221.96 566.331C317.646 578.31 415.268 503.943 509.681 432C604.571 359.719 702.67 285.109 799.496 297.233C855.402 304.24 906.135 338.866 954.615 403.122L952.413 404.504C904.411 340.83 854.288 306.544 799.125 299.633C703.466 287.655 605.817 362.022 511.405 433.964C423.41 500.912 332.657 570.041 242.699 570.041Z" fill="url(#paint1_linear_214_1010)" fill-opacity="0.62"/>
<path d="M279.825 509.084C273.454 509.082 267.091 508.669 260.784 507.847C211.96 501.519 167.723 471.015 125.529 414.591L127.704 413.233C169.5 469.003 213.179 499.215 261.208 505.374C343.819 516.091 428.287 452.66 509.758 391.411C591.786 329.701 676.598 265.93 760.35 276.793C809.174 283.121 853.41 313.625 895.604 370.049L893.429 371.407C851.633 315.637 807.954 285.425 759.925 279.266C677.314 268.549 592.846 331.98 511.376 393.229C435.58 450.259 357.371 509.084 279.825 509.084Z" fill="url(#paint2_linear_214_1010)" fill-opacity="0.62"/>
<path d="M317.008 448.126C311.301 448.133 305.601 447.752 299.956 446.986C258.265 441.312 220.394 414.931 184.459 366.363L186.66 365.126C222.251 413.112 259.432 439.154 300.353 444.707C369.89 454.187 440.912 401.667 509.706 350.869C578.898 299.755 650.45 246.896 721.127 256.522C762.817 262.196 800.689 288.553 836.624 337.145L834.423 338.503C798.832 290.517 761.65 264.475 720.729 258.922C651.193 249.466 580.171 301.962 511.377 352.76C447.754 399.631 382.143 448.126 317.008 448.126Z" fill="url(#paint3_linear_214_1010)" fill-opacity="0.62"/>
<path d="M354.189 387.215C349.145 387.223 344.108 386.866 339.125 386.149C304.649 381.129 273.248 358.87 243.439 318.11L245.641 316.752C275.025 356.93 305.736 378.85 339.55 383.748C396.038 391.919 453.826 350.335 509.731 310.108C566.061 269.567 624.326 227.667 681.955 235.984C716.432 241.003 747.832 263.262 777.641 304.022L775.414 305.38C746.055 265.202 715.345 243.282 681.531 238.384C625.069 230.213 567.254 271.797 511.349 312.024C459.82 349.05 406.779 387.215 354.189 387.215Z" fill="url(#paint4_linear_214_1010)" fill-opacity="0.62"/>
<path d="M391.424 326.33C386.979 326.339 382.542 325.99 378.164 325.288C350.689 320.923 325.866 302.762 302.289 269.809L304.517 268.476C327.669 300.846 351.909 318.644 378.615 322.911C422.056 329.822 466.557 299.125 509.6 269.421C553.093 239.427 598.072 208.39 642.653 215.495C670.128 219.884 694.951 238.021 718.501 270.973L716.3 272.307C693.148 239.961 668.908 222.139 642.202 217.895C598.735 210.961 554.26 241.682 511.217 271.24C472.1 298.47 431.682 326.33 391.424 326.33Z" fill="url(#paint5_linear_214_1010)" fill-opacity="0.62"/>
<path d="M609.827 196.498L608.521 198.608L844.515 320.634L845.82 318.523L609.827 196.498Z" fill="url(#paint6_linear_214_1010)" fill-opacity="0.62"/>
<path d="M560.943 201.519L558.764 202.901L676.764 358.419L678.943 357.037L560.943 201.519Z" fill="url(#paint7_linear_214_1010)" fill-opacity="0.62"/>
<path d="M511.881 229.825H509.229V473.561H511.881V229.825Z" fill="url(#paint8_linear_214_1010)" fill-opacity="0.62"/>
<path d="M459.806 256.919L342.025 588.935L344.548 589.683L462.329 257.667L459.806 256.919Z" fill="url(#paint9_linear_214_1010)" fill-opacity="0.62"/>
<path d="M410.591 261.372L174.885 626.934L177.169 628.165L412.875 262.603L410.591 261.372Z" fill="url(#paint10_linear_214_1010)" fill-opacity="0.62"/>
<g filter="url(#filter0_d_214_1010)">
<rect x="722.047" y="337.065" width="247.113" height="54.1696" rx="10.848" fill="#1A181C"/>
<rect x="722.697" y="337.716" width="245.812" height="52.869" rx="10.1977" stroke="#262428" stroke-width="1.3006"/>
</g>
<path d="M793.017 372.333H787.058V353.924H793.206C795.01 353.924 796.559 354.293 797.853 355.03C799.147 355.761 800.139 356.813 800.828 358.185C801.523 359.551 801.871 361.19 801.871 363.102C801.871 365.019 801.52 366.667 800.819 368.045C800.124 369.424 799.117 370.484 797.799 371.227C796.481 371.964 794.887 372.333 793.017 372.333ZM789.835 369.906H792.864C794.266 369.906 795.432 369.642 796.361 369.115C797.29 368.582 797.985 367.812 798.446 366.805C798.908 365.792 799.138 364.558 799.138 363.102C799.138 361.658 798.908 360.432 798.446 359.425C797.991 358.419 797.311 357.655 796.406 357.133C795.501 356.612 794.377 356.351 793.035 356.351H789.835V369.906ZM811.059 372.612C809.699 372.612 808.528 372.321 807.545 371.74C806.568 371.153 805.813 370.329 805.28 369.268C804.752 368.201 804.489 366.952 804.489 365.52C804.489 364.105 804.752 362.859 805.28 361.78C805.813 360.702 806.556 359.86 807.509 359.255C808.468 358.649 809.588 358.347 810.871 358.347C811.65 358.347 812.405 358.476 813.136 358.733C813.867 358.991 814.523 359.395 815.104 359.947C815.686 360.498 816.144 361.214 816.48 362.095C816.815 362.97 816.983 364.034 816.983 365.286V366.239H806.008V364.225H814.349C814.349 363.518 814.205 362.892 813.918 362.347C813.63 361.795 813.226 361.361 812.704 361.043C812.189 360.726 811.584 360.567 810.889 360.567C810.134 360.567 809.474 360.753 808.911 361.124C808.354 361.49 807.922 361.969 807.617 362.562C807.317 363.15 807.167 363.788 807.167 364.477V366.05C807.167 366.973 807.329 367.758 807.653 368.405C807.982 369.052 808.441 369.547 809.028 369.888C809.615 370.224 810.301 370.391 811.086 370.391C811.596 370.391 812.06 370.32 812.48 370.176C812.899 370.026 813.262 369.804 813.567 369.511C813.873 369.217 814.107 368.854 814.268 368.423L816.812 368.881C816.608 369.63 816.243 370.287 815.716 370.85C815.194 371.407 814.538 371.842 813.747 372.153C812.962 372.459 812.066 372.612 811.059 372.612ZM826.41 358.526V360.684H818.868V358.526H826.41ZM820.891 355.219H823.578V368.279C823.578 368.8 823.656 369.193 823.812 369.457C823.968 369.714 824.169 369.891 824.414 369.987C824.666 370.077 824.939 370.122 825.232 370.122C825.448 370.122 825.637 370.107 825.799 370.077C825.96 370.047 826.086 370.023 826.176 370.005L826.661 372.225C826.506 372.285 826.284 372.345 825.996 372.405C825.709 372.471 825.349 372.507 824.918 372.513C824.211 372.525 823.551 372.399 822.94 372.135C822.329 371.872 821.835 371.464 821.457 370.913C821.08 370.362 820.891 369.669 820.891 368.836V355.219ZM835.185 372.612C833.825 372.612 832.653 372.321 831.67 371.74C830.694 371.153 829.939 370.329 829.405 369.268C828.878 368.201 828.614 366.952 828.614 365.52C828.614 364.105 828.878 362.859 829.405 361.78C829.939 360.702 830.682 359.86 831.634 359.255C832.593 358.649 833.714 358.347 834.996 358.347C835.775 358.347 836.53 358.476 837.261 358.733C837.992 358.991 838.649 359.395 839.23 359.947C839.811 360.498 840.269 361.214 840.605 362.095C840.941 362.97 841.108 364.034 841.108 365.286V366.239H830.133V364.225H838.475C838.475 363.518 838.331 362.892 838.043 362.347C837.756 361.795 837.351 361.361 836.83 361.043C836.314 360.726 835.709 360.567 835.014 360.567C834.259 360.567 833.6 360.753 833.037 361.124C832.479 361.49 832.048 361.969 831.742 362.562C831.443 363.15 831.293 363.788 831.293 364.477V366.05C831.293 366.973 831.455 367.758 831.778 368.405C832.108 369.052 832.566 369.547 833.153 369.888C833.741 370.224 834.427 370.391 835.212 370.391C835.721 370.391 836.186 370.32 836.605 370.176C837.025 370.026 837.387 369.804 837.693 369.511C837.998 369.217 838.232 368.854 838.394 368.423L840.938 368.881C840.734 369.63 840.368 370.287 839.841 370.85C839.32 371.407 838.664 371.842 837.873 372.153C837.088 372.459 836.192 372.612 835.185 372.612ZM849.906 372.612C848.57 372.612 847.419 372.309 846.454 371.704C845.496 371.093 844.759 370.251 844.243 369.178C843.728 368.105 843.47 366.877 843.47 365.493C843.47 364.09 843.734 362.853 844.261 361.78C844.789 360.702 845.532 359.86 846.49 359.255C847.449 358.649 848.579 358.347 849.879 358.347C850.928 358.347 851.863 358.541 852.684 358.931C853.504 359.314 854.167 359.854 854.67 360.549C855.179 361.244 855.482 362.056 855.578 362.985H852.962C852.818 362.338 852.489 361.78 851.973 361.313C851.464 360.846 850.781 360.612 849.924 360.612C849.175 360.612 848.519 360.81 847.955 361.205C847.398 361.595 846.964 362.152 846.652 362.877C846.341 363.596 846.185 364.447 846.185 365.43C846.185 366.436 846.338 367.305 846.643 368.036C846.949 368.768 847.38 369.334 847.938 369.735C848.501 370.137 849.163 370.338 849.924 370.338C850.433 370.338 850.895 370.245 851.308 370.059C851.728 369.867 852.078 369.594 852.36 369.241C852.648 368.887 852.848 368.462 852.962 367.965H855.578C855.482 368.857 855.191 369.654 854.706 370.356C854.221 371.057 853.57 371.608 852.755 372.009C851.946 372.411 850.997 372.612 849.906 372.612ZM864.897 358.526V360.684H857.355V358.526H864.897ZM859.378 355.219H862.065V368.279C862.065 368.8 862.143 369.193 862.299 369.457C862.455 369.714 862.656 369.891 862.901 369.987C863.153 370.077 863.426 370.122 863.719 370.122C863.935 370.122 864.124 370.107 864.286 370.077C864.447 370.047 864.573 370.023 864.663 370.005L865.148 372.225C864.993 372.285 864.771 372.345 864.483 372.405C864.196 372.471 863.836 372.507 863.405 372.513C862.698 372.525 862.038 372.399 861.427 372.135C860.816 371.872 860.322 371.464 859.944 370.913C859.567 370.362 859.378 369.669 859.378 368.836V355.219ZM867.87 372.333V358.526H870.557V372.333H867.87ZM869.227 356.396C868.76 356.396 868.358 356.24 868.023 355.929C867.693 355.611 867.528 355.234 867.528 354.796C867.528 354.353 867.693 353.975 868.023 353.664C868.358 353.346 868.76 353.187 869.227 353.187C869.694 353.187 870.093 353.346 870.423 353.664C870.758 353.975 870.926 354.353 870.926 354.796C870.926 355.234 870.758 355.611 870.423 355.929C870.093 356.24 869.694 356.396 869.227 356.396ZM879.989 372.612C878.694 372.612 877.565 372.315 876.6 371.722C875.635 371.129 874.886 370.299 874.353 369.232C873.82 368.165 873.553 366.919 873.553 365.493C873.553 364.06 873.82 362.808 874.353 361.735C874.886 360.663 875.635 359.83 876.6 359.237C877.565 358.643 878.694 358.347 879.989 358.347C881.283 358.347 882.413 358.643 883.377 359.237C884.342 359.83 885.091 360.663 885.625 361.735C886.158 362.808 886.425 364.06 886.425 365.493C886.425 366.919 886.158 368.165 885.625 369.232C885.091 370.299 884.342 371.129 883.377 371.722C882.413 372.315 881.283 372.612 879.989 372.612ZM879.998 370.356C880.837 370.356 881.532 370.134 882.083 369.69C882.634 369.247 883.042 368.657 883.305 367.92C883.575 367.183 883.71 366.371 883.71 365.484C883.71 364.603 883.575 363.794 883.305 363.057C883.042 362.314 882.634 361.717 882.083 361.268C881.532 360.819 880.837 360.594 879.998 360.594C879.153 360.594 878.452 360.819 877.894 361.268C877.343 361.717 876.933 362.314 876.663 363.057C876.399 363.794 876.267 364.603 876.267 365.484C876.267 366.371 876.399 367.183 876.663 367.92C876.933 368.657 877.343 369.247 877.894 369.69C878.452 370.134 879.153 370.356 879.998 370.356ZM892.112 364.135V372.333H889.424V358.526H892.004V360.774H892.175C892.493 360.043 892.99 359.455 893.667 359.012C894.35 358.568 895.21 358.347 896.247 358.347C897.188 358.347 898.012 358.544 898.719 358.94C899.426 359.329 899.974 359.911 900.364 360.684C900.753 361.457 900.948 362.413 900.948 363.551V372.333H898.26V363.875C898.26 362.874 898 362.092 897.478 361.529C896.957 360.959 896.241 360.675 895.33 360.675C894.707 360.675 894.153 360.81 893.667 361.079C893.188 361.349 892.807 361.744 892.526 362.266C892.25 362.781 892.112 363.404 892.112 364.135Z" fill="#DCDCDD"/>
<g filter="url(#filter1_d_214_1010)">
<rect x="369.584" y="212.208" width="260.119" height="57.0206" rx="11.4189" fill="#1A181C"/>
<rect x="370.234" y="212.859" width="258.818" height="55.72" rx="10.7686" stroke="#262428" stroke-width="1.3006"/>
</g>
<path d="M431.163 236.783H428.211C428.097 236.152 427.886 235.597 427.577 235.118C427.268 234.638 426.889 234.231 426.441 233.897C425.993 233.563 425.492 233.31 424.937 233.14C424.388 232.97 423.805 232.885 423.186 232.885C422.07 232.885 421.07 233.165 420.187 233.727C419.31 234.288 418.616 235.111 418.106 236.196C417.601 237.281 417.349 238.606 417.349 240.17C417.349 241.747 417.601 243.078 418.106 244.163C418.616 245.248 419.313 246.068 420.197 246.623C421.08 247.178 422.073 247.456 423.177 247.456C423.789 247.456 424.369 247.374 424.918 247.21C425.473 247.039 425.975 246.79 426.422 246.462C426.87 246.134 427.249 245.734 427.558 245.26C427.873 244.781 428.091 244.232 428.211 243.614L431.163 243.624C431.005 244.576 430.699 245.453 430.245 246.254C429.797 247.049 429.22 247.736 428.513 248.317C427.813 248.891 427.012 249.335 426.11 249.651C425.208 249.966 424.224 250.124 423.158 250.124C421.48 250.124 419.985 249.726 418.673 248.932C417.361 248.131 416.327 246.986 415.57 245.497C414.819 244.008 414.444 242.233 414.444 240.17C414.444 238.101 414.822 236.325 415.579 234.843C416.336 233.355 417.371 232.213 418.683 231.418C419.995 230.617 421.487 230.216 423.158 230.216C424.186 230.216 425.145 230.365 426.034 230.661C426.93 230.951 427.734 231.38 428.447 231.948C429.16 232.509 429.75 233.197 430.217 234.011C430.683 234.818 430.999 235.742 431.163 236.783ZM437.263 230.481V249.859H434.434V230.481H437.263ZM445.298 250.181C444.378 250.181 443.545 250.01 442.801 249.67C442.056 249.323 441.466 248.821 441.031 248.165C440.602 247.509 440.388 246.705 440.388 245.753C440.388 244.932 440.546 244.258 440.861 243.728C441.176 243.198 441.602 242.778 442.138 242.469C442.674 242.16 443.274 241.927 443.936 241.769C444.598 241.611 445.273 241.492 445.961 241.41C446.831 241.309 447.538 241.227 448.08 241.164C448.623 241.094 449.017 240.984 449.263 240.832C449.509 240.681 449.632 240.435 449.632 240.094V240.028C449.632 239.202 449.399 238.562 448.932 238.107C448.471 237.653 447.784 237.426 446.869 237.426C445.917 237.426 445.166 237.638 444.617 238.06C444.075 238.476 443.699 238.94 443.491 239.451L440.833 238.845C441.148 237.962 441.608 237.25 442.214 236.707C442.826 236.158 443.529 235.761 444.324 235.515C445.119 235.263 445.954 235.136 446.831 235.136C447.412 235.136 448.027 235.206 448.676 235.345C449.332 235.477 449.944 235.723 450.512 236.083C451.086 236.442 451.556 236.956 451.922 237.625C452.288 238.287 452.47 239.148 452.47 240.208V249.859H449.708V247.872H449.594C449.411 248.238 449.137 248.597 448.771 248.951C448.405 249.304 447.935 249.597 447.361 249.831C446.787 250.064 446.1 250.181 445.298 250.181ZM445.913 247.91C446.696 247.91 447.364 247.755 447.919 247.446C448.481 247.137 448.907 246.733 449.197 246.235C449.493 245.73 449.641 245.191 449.641 244.617V242.744C449.54 242.845 449.345 242.939 449.055 243.028C448.771 243.11 448.446 243.182 448.08 243.245C447.714 243.302 447.358 243.356 447.011 243.406C446.664 243.45 446.374 243.488 446.141 243.52C445.592 243.589 445.09 243.706 444.636 243.87C444.188 244.034 443.829 244.27 443.558 244.579C443.293 244.882 443.16 245.286 443.16 245.79C443.16 246.491 443.419 247.02 443.936 247.38C444.453 247.733 445.112 247.91 445.913 247.91ZM467.129 238.874L464.565 239.328C464.458 239 464.287 238.688 464.054 238.391C463.827 238.095 463.518 237.852 463.127 237.663C462.736 237.474 462.247 237.379 461.66 237.379C460.859 237.379 460.19 237.559 459.654 237.918C459.118 238.271 458.85 238.729 458.85 239.29C458.85 239.776 459.03 240.167 459.389 240.463C459.749 240.76 460.329 241.003 461.13 241.192L463.439 241.722C464.776 242.031 465.773 242.507 466.429 243.151C467.085 243.794 467.413 244.63 467.413 245.658C467.413 246.528 467.161 247.304 466.656 247.985C466.158 248.66 465.461 249.19 464.565 249.575C463.675 249.96 462.644 250.152 461.471 250.152C459.843 250.152 458.516 249.805 457.488 249.111C456.459 248.411 455.829 247.418 455.595 246.131L458.33 245.715C458.5 246.427 458.85 246.967 459.38 247.333C459.91 247.692 460.6 247.872 461.452 247.872C462.379 247.872 463.12 247.68 463.675 247.295C464.231 246.904 464.508 246.427 464.508 245.866C464.508 245.412 464.338 245.03 463.997 244.721C463.663 244.412 463.149 244.179 462.455 244.021L459.995 243.482C458.639 243.173 457.636 242.681 456.986 242.006C456.343 241.331 456.021 240.476 456.021 239.442C456.021 238.584 456.261 237.833 456.74 237.19C457.219 236.546 457.882 236.045 458.727 235.685C459.572 235.319 460.541 235.136 461.632 235.136C463.202 235.136 464.439 235.477 465.341 236.158C466.243 236.833 466.839 237.738 467.129 238.874ZM481.414 238.874L478.85 239.328C478.742 239 478.572 238.688 478.339 238.391C478.112 238.095 477.803 237.852 477.412 237.663C477.02 237.474 476.532 237.379 475.945 237.379C475.144 237.379 474.475 237.559 473.939 237.918C473.403 238.271 473.135 238.729 473.135 239.29C473.135 239.776 473.315 240.167 473.674 240.463C474.034 240.76 474.614 241.003 475.415 241.192L477.724 241.722C479.061 242.031 480.058 242.507 480.714 243.151C481.37 243.794 481.698 244.63 481.698 245.658C481.698 246.528 481.445 247.304 480.941 247.985C480.442 248.66 479.745 249.19 478.85 249.575C477.96 249.96 476.929 250.152 475.756 250.152C474.128 250.152 472.801 249.805 471.772 249.111C470.744 248.411 470.113 247.418 469.88 246.131L472.614 245.715C472.785 246.427 473.135 246.967 473.665 247.333C474.195 247.692 474.885 247.872 475.737 247.872C476.664 247.872 477.405 247.68 477.96 247.295C478.515 246.904 478.793 246.427 478.793 245.866C478.793 245.412 478.623 245.03 478.282 244.721C477.948 244.412 477.434 244.179 476.74 244.021L474.28 243.482C472.924 243.173 471.921 242.681 471.271 242.006C470.627 241.331 470.306 240.476 470.306 239.442C470.306 238.584 470.545 237.833 471.025 237.19C471.504 236.546 472.167 236.045 473.012 235.685C473.857 235.319 474.825 235.136 475.917 235.136C477.487 235.136 478.724 235.477 479.626 236.158C480.528 236.833 481.124 237.738 481.414 238.874ZM484.808 249.859V235.326H487.637V249.859H484.808ZM486.237 233.083C485.745 233.083 485.322 232.919 484.969 232.591C484.622 232.257 484.449 231.86 484.449 231.399C484.449 230.932 484.622 230.535 484.969 230.207C485.322 229.873 485.745 229.705 486.237 229.705C486.729 229.705 487.148 229.873 487.495 230.207C487.849 230.535 488.025 230.932 488.025 231.399C488.025 231.86 487.849 232.257 487.495 232.591C487.148 232.919 486.729 233.083 486.237 233.083ZM498.36 235.326V237.597H490.147V235.326H498.36ZM492.399 249.859V233.642C492.399 232.733 492.598 231.979 492.995 231.38C493.392 230.775 493.919 230.324 494.575 230.027C495.231 229.724 495.944 229.573 496.713 229.573C497.281 229.573 497.767 229.62 498.17 229.715C498.574 229.803 498.874 229.885 499.069 229.961L498.407 232.251C498.275 232.213 498.104 232.169 497.896 232.118C497.688 232.061 497.436 232.033 497.139 232.033C496.452 232.033 495.96 232.203 495.663 232.544C495.373 232.885 495.228 233.377 495.228 234.02V249.859H492.399ZM501.279 249.859V235.326H504.108V249.859H501.279ZM502.707 233.083C502.215 233.083 501.793 232.919 501.44 232.591C501.093 232.257 500.919 231.86 500.919 231.399C500.919 230.932 501.093 230.535 501.44 230.207C501.793 229.873 502.215 229.705 502.707 229.705C503.199 229.705 503.619 229.873 503.966 230.207C504.319 230.535 504.496 230.932 504.496 231.399C504.496 231.86 504.319 232.257 503.966 232.591C503.619 232.919 503.199 233.083 502.707 233.083ZM514.035 250.152C512.629 250.152 511.418 249.834 510.402 249.197C509.393 248.553 508.617 247.667 508.075 246.538C507.532 245.409 507.261 244.116 507.261 242.659C507.261 241.183 507.538 239.88 508.093 238.751C508.649 237.615 509.431 236.729 510.44 236.092C511.449 235.455 512.638 235.136 514.007 235.136C515.111 235.136 516.095 235.341 516.959 235.751C517.823 236.155 518.52 236.723 519.05 237.455C519.586 238.186 519.905 239.041 520.006 240.019H517.252C517.101 239.337 516.754 238.751 516.212 238.259C515.675 237.767 514.956 237.521 514.054 237.521C513.266 237.521 512.575 237.729 511.982 238.145C511.396 238.555 510.938 239.142 510.61 239.905C510.282 240.662 510.118 241.558 510.118 242.592C510.118 243.652 510.279 244.567 510.601 245.336C510.923 246.106 511.377 246.702 511.963 247.124C512.556 247.547 513.253 247.758 514.054 247.758C514.59 247.758 515.076 247.661 515.511 247.465C515.953 247.263 516.322 246.976 516.618 246.604C516.921 246.232 517.133 245.784 517.252 245.26H520.006C519.905 246.2 519.599 247.039 519.088 247.777C518.577 248.515 517.893 249.096 517.035 249.518C516.183 249.941 515.183 250.152 514.035 250.152ZM527.261 250.181C526.34 250.181 525.507 250.01 524.763 249.67C524.018 249.323 523.429 248.821 522.993 248.165C522.564 247.509 522.35 246.705 522.35 245.753C522.35 244.932 522.508 244.258 522.823 243.728C523.138 243.198 523.564 242.778 524.1 242.469C524.636 242.16 525.236 241.927 525.898 241.769C526.56 241.611 527.235 241.492 527.923 241.41C528.793 241.309 529.5 241.227 530.042 241.164C530.585 241.094 530.979 240.984 531.225 240.832C531.471 240.681 531.594 240.435 531.594 240.094V240.028C531.594 239.202 531.361 238.562 530.894 238.107C530.433 237.653 529.746 237.426 528.831 237.426C527.879 237.426 527.128 237.638 526.579 238.06C526.037 238.476 525.661 238.94 525.453 239.451L522.795 238.845C523.11 237.962 523.57 237.25 524.176 236.707C524.788 236.158 525.491 235.761 526.286 235.515C527.081 235.263 527.917 235.136 528.793 235.136C529.374 235.136 529.989 235.206 530.638 235.345C531.294 235.477 531.906 235.723 532.474 236.083C533.048 236.442 533.518 236.956 533.884 237.625C534.25 238.287 534.432 239.148 534.432 240.208V249.859H531.67V247.872H531.556C531.373 248.238 531.099 248.597 530.733 248.951C530.367 249.304 529.897 249.597 529.323 249.831C528.749 250.064 528.062 250.181 527.261 250.181ZM527.876 247.91C528.658 247.91 529.326 247.755 529.881 247.446C530.443 247.137 530.869 246.733 531.159 246.235C531.455 245.73 531.603 245.191 531.603 244.617V242.744C531.503 242.845 531.307 242.939 531.017 243.028C530.733 243.11 530.408 243.182 530.042 243.245C529.676 243.302 529.32 243.356 528.973 243.406C528.626 243.45 528.336 243.488 528.103 243.52C527.554 243.589 527.052 243.706 526.598 243.87C526.15 244.034 525.791 244.27 525.52 244.579C525.255 244.882 525.122 245.286 525.122 245.79C525.122 246.491 525.381 247.02 525.898 247.38C526.415 247.733 527.074 247.91 527.876 247.91ZM544.985 235.326V237.597H537.046V235.326H544.985ZM539.175 231.844H542.004V245.592C542.004 246.14 542.086 246.554 542.25 246.831C542.414 247.102 542.626 247.288 542.884 247.389C543.149 247.484 543.436 247.531 543.745 247.531C543.972 247.531 544.171 247.516 544.341 247.484C544.512 247.452 544.644 247.427 544.739 247.408L545.25 249.745C545.086 249.808 544.852 249.872 544.549 249.935C544.247 250.004 543.868 250.042 543.414 250.048C542.67 250.061 541.976 249.928 541.332 249.651C540.689 249.373 540.169 248.944 539.771 248.364C539.374 247.784 539.175 247.055 539.175 246.178V231.844ZM548.114 249.859V235.326H550.943V249.859H548.114ZM549.543 233.083C549.051 233.083 548.628 232.919 548.275 232.591C547.928 232.257 547.755 231.86 547.755 231.399C547.755 230.932 547.928 230.535 548.275 230.207C548.628 229.873 549.051 229.705 549.543 229.705C550.035 229.705 550.454 229.873 550.801 230.207C551.154 230.535 551.331 230.932 551.331 231.399C551.331 231.86 551.154 232.257 550.801 232.591C550.454 232.919 550.035 233.083 549.543 233.083ZM560.871 250.152C559.508 250.152 558.319 249.84 557.304 249.215C556.288 248.591 555.5 247.717 554.938 246.595C554.377 245.472 554.096 244.16 554.096 242.659C554.096 241.151 554.377 239.833 554.938 238.704C555.5 237.574 556.288 236.698 557.304 236.073C558.319 235.449 559.508 235.136 560.871 235.136C562.233 235.136 563.422 235.449 564.438 236.073C565.453 236.698 566.242 237.574 566.803 238.704C567.365 239.833 567.645 241.151 567.645 242.659C567.645 244.16 567.365 245.472 566.803 246.595C566.242 247.717 565.453 248.591 564.438 249.215C563.422 249.84 562.233 250.152 560.871 250.152ZM560.88 247.777C561.763 247.777 562.495 247.544 563.075 247.077C563.656 246.61 564.085 245.989 564.362 245.213C564.646 244.437 564.788 243.583 564.788 242.649C564.788 241.722 564.646 240.87 564.362 240.094C564.085 239.312 563.656 238.685 563.075 238.212C562.495 237.738 561.763 237.502 560.88 237.502C559.991 237.502 559.253 237.738 558.666 238.212C558.086 238.685 557.654 239.312 557.37 240.094C557.092 240.87 556.954 241.722 556.954 242.649C556.954 243.583 557.092 244.437 557.37 245.213C557.654 245.989 558.086 246.61 558.666 247.077C559.253 247.544 559.991 247.777 560.88 247.777ZM573.632 241.23V249.859H570.803V235.326H573.519V237.691H573.699C574.033 236.922 574.556 236.303 575.269 235.837C575.988 235.37 576.893 235.136 577.985 235.136C578.975 235.136 579.842 235.345 580.587 235.761C581.331 236.171 581.908 236.783 582.318 237.597C582.728 238.41 582.933 239.416 582.933 240.615V249.859H580.104V240.955C580.104 239.902 579.83 239.079 579.281 238.486C578.732 237.887 577.978 237.587 577.02 237.587C576.364 237.587 575.78 237.729 575.269 238.013C574.765 238.297 574.364 238.713 574.068 239.262C573.777 239.804 573.632 240.46 573.632 241.23Z" fill="#DCDCDD"/>
<g filter="url(#filter2_d_214_1010)">
<rect x="17.123" y="451.518" width="325.149" height="71.2757" rx="14.2737" fill="#1A181C"/>
<rect x="17.7733" y="452.168" width="323.848" height="69.9751" rx="13.6234" stroke="#262428" stroke-width="1.3006"/>
</g>
<path d="M83.999 480.222C83.8728 479.102 83.3524 478.235 82.4378 477.62C81.5232 476.997 80.372 476.686 78.9843 476.686C77.9908 476.686 77.1313 476.843 76.4059 477.159C75.6805 477.466 75.1168 477.892 74.7147 478.436C74.3204 478.972 74.1233 479.583 74.1233 480.269C74.1233 480.845 74.2573 481.342 74.5254 481.76C74.8014 482.178 75.1602 482.528 75.6017 482.812C76.0511 483.088 76.5321 483.321 77.0446 483.51C77.5571 483.691 78.0499 483.841 78.523 483.959L80.8884 484.574C81.6611 484.764 82.4536 485.02 83.2657 485.343C84.0778 485.667 84.8308 486.092 85.5247 486.621C86.2185 487.149 86.7783 487.803 87.2041 488.584C87.6378 489.364 87.8546 490.299 87.8546 491.387C87.8546 492.759 87.4998 493.977 86.7902 495.041C86.0884 496.106 85.0673 496.946 83.7269 497.561C82.3944 498.176 80.782 498.483 78.8896 498.483C77.0761 498.483 75.5071 498.195 74.1824 497.62C72.8578 497.044 71.821 496.228 71.0719 495.172C70.3229 494.107 69.9089 492.846 69.8301 491.387H73.4965C73.5674 492.262 73.8513 492.991 74.348 493.575C74.8526 494.151 75.4953 494.58 76.2758 494.864C77.0643 495.14 77.9277 495.278 78.866 495.278C79.8989 495.278 80.8175 495.116 81.6217 494.793C82.4338 494.462 83.0725 494.005 83.5377 493.421C84.0029 492.83 84.2355 492.14 84.2355 491.351C84.2355 490.634 84.0305 490.046 83.6205 489.589C83.2184 489.132 82.6704 488.753 81.9765 488.454C81.2906 488.154 80.5139 487.89 79.6466 487.661L76.7844 486.881C74.8448 486.352 73.3072 485.576 72.1718 484.551C71.0443 483.526 70.4806 482.17 70.4806 480.482C70.4806 479.087 70.859 477.868 71.616 476.828C72.3729 475.787 73.3979 474.979 74.691 474.403C75.9841 473.82 77.4428 473.528 79.0671 473.528C80.7071 473.528 82.1539 473.816 83.4076 474.391C84.6692 474.967 85.6626 475.759 86.388 476.769C87.1134 477.77 87.4919 478.921 87.5234 480.222H83.999ZM99.7675 498.448C97.9776 498.448 96.4362 498.065 95.1431 497.3C93.8579 496.528 92.8644 495.444 92.1626 494.048C91.4688 492.645 91.1219 491.001 91.1219 489.116C91.1219 487.255 91.4688 485.615 92.1626 484.196C92.8644 482.777 93.8421 481.669 95.0958 480.873C96.3573 480.076 97.8318 479.678 99.5191 479.678C100.544 479.678 101.538 479.848 102.5 480.187C103.461 480.526 104.325 481.058 105.09 481.783C105.855 482.509 106.458 483.451 106.899 484.61C107.341 485.761 107.562 487.161 107.562 488.809V490.062H93.1206V487.413H104.096C104.096 486.483 103.907 485.659 103.529 484.941C103.15 484.216 102.618 483.644 101.932 483.226C101.254 482.808 100.457 482.599 99.5428 482.599C98.5493 482.599 97.682 482.844 96.9408 483.333C96.2075 483.814 95.6398 484.444 95.2377 485.225C94.8435 485.998 94.6463 486.837 94.6463 487.744V489.814C94.6463 491.028 94.8592 492.061 95.285 492.913C95.7187 493.764 96.3218 494.415 97.0946 494.864C97.8673 495.306 98.7701 495.526 99.803 495.526C100.473 495.526 101.084 495.432 101.636 495.243C102.188 495.045 102.665 494.754 103.067 494.367C103.469 493.981 103.777 493.504 103.99 492.936L107.337 493.539C107.069 494.525 106.588 495.388 105.894 496.13C105.208 496.863 104.345 497.435 103.304 497.845C102.271 498.247 101.092 498.448 99.7675 498.448ZM119.102 505.272C117.659 505.272 116.417 505.083 115.376 504.704C114.343 504.326 113.5 503.825 112.845 503.202C112.191 502.579 111.702 501.897 111.379 501.156L114.418 499.902C114.631 500.249 114.915 500.616 115.27 501.002C115.633 501.397 116.121 501.732 116.736 502.008C117.359 502.284 118.16 502.422 119.137 502.422C120.478 502.422 121.586 502.094 122.461 501.44C123.336 500.793 123.774 499.761 123.774 498.341V494.769H123.549C123.336 495.156 123.028 495.586 122.626 496.059C122.232 496.532 121.688 496.942 120.994 497.289C120.3 497.636 119.398 497.809 118.286 497.809C116.851 497.809 115.558 497.474 114.407 496.804C113.263 496.126 112.356 495.128 111.686 493.811C111.024 492.487 110.693 490.859 110.693 488.927C110.693 486.995 111.02 485.339 111.674 483.959C112.337 482.58 113.244 481.523 114.395 480.79C115.546 480.049 116.851 479.678 118.309 479.678C119.437 479.678 120.348 479.867 121.042 480.246C121.735 480.616 122.276 481.05 122.662 481.547C123.056 482.043 123.36 482.481 123.573 482.86H123.833V479.915H127.298V498.483C127.298 500.044 126.935 501.326 126.21 502.327C125.485 503.328 124.503 504.07 123.265 504.55C122.035 505.031 120.647 505.272 119.102 505.272ZM119.066 494.876C120.084 494.876 120.943 494.639 121.645 494.166C122.354 493.685 122.891 492.999 123.253 492.108C123.624 491.209 123.809 490.133 123.809 488.88C123.809 487.657 123.628 486.581 123.265 485.651C122.902 484.72 122.37 483.995 121.668 483.475C120.967 482.946 120.099 482.682 119.066 482.682C118.002 482.682 117.115 482.958 116.405 483.51C115.696 484.054 115.16 484.795 114.797 485.734C114.442 486.672 114.265 487.72 114.265 488.88C114.265 490.07 114.446 491.115 114.809 492.014C115.171 492.913 115.708 493.614 116.417 494.119C117.135 494.624 118.018 494.876 119.066 494.876ZM132.041 498.081V479.915H135.435V482.871H135.66C136.038 481.87 136.657 481.089 137.517 480.53C138.376 479.962 139.405 479.678 140.604 479.678C141.818 479.678 142.835 479.962 143.655 480.53C144.483 481.097 145.094 481.878 145.488 482.871H145.677C146.111 481.902 146.801 481.129 147.747 480.553C148.693 479.97 149.821 479.678 151.13 479.678C152.778 479.678 154.122 480.194 155.163 481.227C156.211 482.26 156.736 483.818 156.736 485.899V498.081H153.2V486.23C153.2 485 152.864 484.109 152.194 483.557C151.524 483.005 150.724 482.729 149.793 482.729C148.642 482.729 147.747 483.084 147.109 483.794C146.47 484.496 146.151 485.398 146.151 486.502V498.081H142.626V486.006C142.626 485.02 142.319 484.228 141.704 483.628C141.089 483.029 140.288 482.729 139.303 482.729C138.632 482.729 138.013 482.907 137.446 483.262C136.886 483.609 136.433 484.094 136.086 484.716C135.747 485.339 135.577 486.061 135.577 486.881V498.081H132.041ZM169.305 498.448C167.515 498.448 165.974 498.065 164.681 497.3C163.395 496.528 162.402 495.444 161.7 494.048C161.006 492.645 160.659 491.001 160.659 489.116C160.659 487.255 161.006 485.615 161.7 484.196C162.402 482.777 163.38 481.669 164.633 480.873C165.895 480.076 167.369 479.678 169.057 479.678C170.082 479.678 171.075 479.848 172.037 480.187C172.999 480.526 173.862 481.058 174.627 481.783C175.392 482.509 175.995 483.451 176.437 484.61C176.878 485.761 177.099 487.161 177.099 488.809V490.062H162.658V487.413H173.634C173.634 486.483 173.445 485.659 173.066 484.941C172.688 484.216 172.155 483.644 171.469 483.226C170.791 482.808 169.995 482.599 169.08 482.599C168.087 482.599 167.22 482.844 166.478 483.333C165.745 483.814 165.177 484.444 164.775 485.225C164.381 485.998 164.184 486.837 164.184 487.744V489.814C164.184 491.028 164.397 492.061 164.823 492.913C165.256 493.764 165.859 494.415 166.632 494.864C167.405 495.306 168.308 495.526 169.341 495.526C170.011 495.526 170.622 495.432 171.174 495.243C171.726 495.045 172.203 494.754 172.605 494.367C173.007 493.981 173.315 493.504 173.527 492.936L176.874 493.539C176.606 494.525 176.125 495.388 175.432 496.13C174.746 496.863 173.882 497.435 172.841 497.845C171.809 498.247 170.63 498.448 169.305 498.448ZM184.559 487.295V498.081H181.023V479.915H184.417V482.871H184.642C185.06 481.909 185.714 481.137 186.605 480.553C187.504 479.97 188.636 479.678 190 479.678C191.238 479.678 192.322 479.938 193.252 480.459C194.182 480.971 194.904 481.736 195.416 482.753C195.929 483.77 196.185 485.028 196.185 486.526V498.081H192.649V486.952C192.649 485.635 192.306 484.606 191.62 483.865C190.934 483.116 189.992 482.741 188.793 482.741C187.973 482.741 187.244 482.919 186.605 483.273C185.974 483.628 185.474 484.149 185.103 484.835C184.74 485.513 184.559 486.333 184.559 487.295ZM209.408 479.915V482.753H199.485V479.915H209.408ZM202.146 475.562H205.682V492.747C205.682 493.433 205.785 493.949 205.99 494.296C206.195 494.635 206.459 494.868 206.782 494.994C207.113 495.112 207.472 495.172 207.859 495.172C208.142 495.172 208.391 495.152 208.604 495.112C208.817 495.073 208.982 495.041 209.1 495.018L209.739 497.939C209.534 498.018 209.242 498.097 208.864 498.176C208.485 498.262 208.012 498.31 207.445 498.318C206.514 498.333 205.647 498.168 204.843 497.821C204.038 497.474 203.388 496.938 202.891 496.212C202.394 495.487 202.146 494.576 202.146 493.48V475.562ZM218.607 498.483C217.455 498.483 216.415 498.27 215.484 497.845C214.554 497.411 213.817 496.784 213.272 495.964C212.736 495.144 212.468 494.139 212.468 492.948C212.468 491.923 212.665 491.079 213.06 490.417C213.454 489.755 213.986 489.23 214.656 488.844C215.326 488.458 216.075 488.166 216.903 487.969C217.731 487.772 218.575 487.622 219.434 487.519C220.522 487.393 221.406 487.291 222.084 487.212C222.762 487.125 223.255 486.987 223.562 486.798C223.87 486.609 224.023 486.301 224.023 485.875V485.793C224.023 484.76 223.732 483.959 223.148 483.392C222.573 482.824 221.713 482.54 220.57 482.54C219.379 482.54 218.441 482.804 217.755 483.333C217.077 483.853 216.608 484.433 216.348 485.071L213.024 484.314C213.418 483.21 213.994 482.319 214.751 481.641C215.516 480.955 216.395 480.459 217.388 480.151C218.382 479.836 219.427 479.678 220.522 479.678C221.248 479.678 222.017 479.765 222.829 479.938C223.649 480.104 224.414 480.411 225.123 480.861C225.841 481.31 226.428 481.953 226.885 482.789C227.343 483.616 227.571 484.693 227.571 486.017V498.081H224.118V495.597H223.976C223.747 496.055 223.404 496.504 222.947 496.946C222.49 497.387 221.902 497.754 221.185 498.046C220.467 498.337 219.608 498.483 218.607 498.483ZM219.375 495.645C220.353 495.645 221.189 495.451 221.883 495.065C222.584 494.679 223.117 494.174 223.479 493.551C223.85 492.92 224.035 492.246 224.035 491.529V489.187C223.909 489.313 223.665 489.431 223.302 489.542C222.947 489.644 222.541 489.735 222.084 489.814C221.626 489.885 221.181 489.952 220.747 490.015C220.314 490.07 219.951 490.117 219.659 490.157C218.973 490.244 218.346 490.389 217.779 490.594C217.219 490.799 216.769 491.095 216.43 491.482C216.099 491.86 215.934 492.365 215.934 492.995C215.934 493.871 216.257 494.533 216.903 494.982C217.55 495.424 218.374 495.645 219.375 495.645ZM240.762 479.915V482.753H230.839V479.915H240.762ZM233.5 475.562H237.036V492.747C237.036 493.433 237.139 493.949 237.344 494.296C237.549 494.635 237.813 494.868 238.136 494.994C238.467 495.112 238.826 495.172 239.212 495.172C239.496 495.172 239.745 495.152 239.957 495.112C240.17 495.073 240.336 495.041 240.454 495.018L241.093 497.939C240.888 498.018 240.596 498.097 240.218 498.176C239.839 498.262 239.366 498.31 238.798 498.318C237.868 498.333 237.001 498.168 236.196 497.821C235.392 497.474 234.742 496.938 234.245 496.212C233.748 495.487 233.5 494.576 233.5 493.48V475.562ZM244.674 498.081V479.915H248.21V498.081H244.674ZM246.459 477.112C245.844 477.112 245.316 476.907 244.875 476.497C244.441 476.079 244.224 475.582 244.224 475.006C244.224 474.423 244.441 473.926 244.875 473.516C245.316 473.098 245.844 472.889 246.459 472.889C247.074 472.889 247.599 473.098 248.032 473.516C248.474 473.926 248.695 474.423 248.695 475.006C248.695 475.582 248.474 476.079 248.032 476.497C247.599 476.907 247.074 477.112 246.459 477.112ZM260.619 498.448C258.916 498.448 257.43 498.057 256.161 497.277C254.891 496.496 253.906 495.404 253.204 494.001C252.502 492.597 252.151 490.957 252.151 489.081C252.151 487.196 252.502 485.548 253.204 484.137C253.906 482.725 254.891 481.63 256.161 480.849C257.43 480.068 258.916 479.678 260.619 479.678C262.323 479.678 263.809 480.068 265.078 480.849C266.348 481.63 267.333 482.725 268.035 484.137C268.737 485.548 269.088 487.196 269.088 489.081C269.088 490.957 268.737 492.597 268.035 494.001C267.333 495.404 266.348 496.496 265.078 497.277C263.809 498.057 262.323 498.448 260.619 498.448ZM260.631 495.479C261.735 495.479 262.65 495.187 263.375 494.604C264.101 494.02 264.637 493.244 264.984 492.274C265.338 491.304 265.516 490.236 265.516 489.069C265.516 487.91 265.338 486.845 264.984 485.875C264.637 484.898 264.101 484.113 263.375 483.522C262.65 482.93 261.735 482.635 260.631 482.635C259.52 482.635 258.597 482.93 257.864 483.522C257.138 484.113 256.598 484.898 256.243 485.875C255.896 486.845 255.723 487.91 255.723 489.069C255.723 490.236 255.896 491.304 256.243 492.274C256.598 493.244 257.138 494.02 257.864 494.604C258.597 495.187 259.52 495.479 260.631 495.479ZM276.571 487.295V498.081H273.035V479.915H276.429V482.871H276.654C277.072 481.909 277.726 481.137 278.617 480.553C279.516 479.97 280.648 479.678 282.012 479.678C283.25 479.678 284.334 479.938 285.264 480.459C286.195 480.971 286.916 481.736 287.429 482.753C287.941 483.77 288.197 485.028 288.197 486.526V498.081H284.661V486.952C284.661 485.635 284.318 484.606 283.632 483.865C282.946 483.116 282.004 482.741 280.805 482.741C279.985 482.741 279.256 482.919 278.617 483.273C277.987 483.628 277.486 484.149 277.115 484.835C276.753 485.513 276.571 486.333 276.571 487.295Z" fill="#DCDCDD"/>
<defs>
<filter id="filter0_d_214_1010" x="713.447" y="328.465" width="264.313" height="71.3694" filterUnits="userSpaceOnUse" color-interpolation-filters="sRGB">
<feFlood flood-opacity="0" result="BackgroundImageFix"/>
<feColorMatrix in="SourceAlpha" type="matrix" values="0 0 0 0 0 0 0 0 0 0 0 0 0 0 0 0 0 0 127 0" result="hardAlpha"/>
<feMorphology radius="2" operator="dilate" in="SourceAlpha" result="effect1_dropShadow_214_1010"/>
<feOffset/>
<feGaussianBlur stdDeviation="3.3"/>
<feComposite in2="hardAlpha" operator="out"/>
<feColorMatrix type="matrix" values="0 0 0 0 0.9 0 0 0 0 0.9 0 0 0 0 0.9 0 0 0 0.17 0"/>
<feBlend mode="normal" in2="BackgroundImageFix" result="effect1_dropShadow_214_1010"/>
<feBlend mode="normal" in="SourceGraphic" in2="effect1_dropShadow_214_1010" result="shape"/>
</filter>
<filter id="filter1_d_214_1010" x="360.984" y="203.608" width="277.319" height="74.2205" filterUnits="userSpaceOnUse" color-interpolation-filters="sRGB">
<feFlood flood-opacity="0" result="BackgroundImageFix"/>
<feColorMatrix in="SourceAlpha" type="matrix" values="0 0 0 0 0 0 0 0 0 0 0 0 0 0 0 0 0 0 127 0" result="hardAlpha"/>
<feMorphology radius="2" operator="dilate" in="SourceAlpha" result="effect1_dropShadow_214_1010"/>
<feOffset/>
<feGaussianBlur stdDeviation="3.3"/>
<feComposite in2="hardAlpha" operator="out"/>
<feColorMatrix type="matrix" values="0 0 0 0 0.9 0 0 0 0 0.9 0 0 0 0 0.9 0 0 0 0.17 0"/>
<feBlend mode="normal" in2="BackgroundImageFix" result="effect1_dropShadow_214_1010"/>
<feBlend mode="normal" in="SourceGraphic" in2="effect1_dropShadow_214_1010" result="shape"/>
</filter>
<filter id="filter2_d_214_1010" x="8.52305" y="442.918" width="342.348" height="88.4759" filterUnits="userSpaceOnUse" color-interpolation-filters="sRGB">
<feFlood flood-opacity="0" result="BackgroundImageFix"/>
<feColorMatrix in="SourceAlpha" type="matrix" values="0 0 0 0 0 0 0 0 0 0 0 0 0 0 0 0 0 0 127 0" result="hardAlpha"/>
<feMorphology radius="2" operator="dilate" in="SourceAlpha" result="effect1_dropShadow_214_1010"/>
<feOffset/>
<feGaussianBlur stdDeviation="3.3"/>
<feComposite in2="hardAlpha" operator="out"/>
<feColorMatrix type="matrix" values="0 0 0 0 0.9 0 0 0 0 0.9 0 0 0 0 0.9 0 0 0 0.17 0"/>
<feBlend mode="normal" in2="BackgroundImageFix" result="effect1_dropShadow_214_1010"/>
<feBlend mode="normal" in="SourceGraphic" in2="effect1_dropShadow_214_1010" result="shape"/>
</filter>
<linearGradient id="paint0_linear_214_1010" x1="513.473" y1="194" x2="513.473" y2="631" gradientUnits="userSpaceOnUse">
<stop stop-color="#858585"/>
<stop offset="1" stop-color="#353535"/>
</linearGradient>
<linearGradient id="paint1_linear_214_1010" x1="511.837" y1="295.93" x2="511.837" y2="570.041" gradientUnits="userSpaceOnUse">
<stop stop-color="#858585"/>
<stop offset="1" stop-color="#353535"/>
</linearGradient>
<linearGradient id="paint2_linear_214_1010" x1="511.689" y1="275.576" x2="511.689" y2="509.084" gradientUnits="userSpaceOnUse">
<stop stop-color="#858585"/>
<stop offset="1" stop-color="#353535"/>
</linearGradient>
<linearGradient id="paint3_linear_214_1010" x1="511.492" y1="255.378" x2="511.492" y2="448.126" gradientUnits="userSpaceOnUse">
<stop stop-color="#858585"/>
<stop offset="1" stop-color="#353535"/>
</linearGradient>
<linearGradient id="paint4_linear_214_1010" x1="511.319" y1="234.919" x2="511.319" y2="387.216" gradientUnits="userSpaceOnUse">
<stop stop-color="#858585"/>
<stop offset="1" stop-color="#353535"/>
</linearGradient>
<linearGradient id="paint5_linear_214_1010" x1="511.002" y1="214.468" x2="511.002" y2="326.33" gradientUnits="userSpaceOnUse">
<stop stop-color="#858585"/>
<stop offset="1" stop-color="#353535"/>
</linearGradient>
<linearGradient id="paint6_linear_214_1010" x1="609.176" y1="197.55" x2="834.454" y2="336.897" gradientUnits="userSpaceOnUse">
<stop stop-color="#858585"/>
<stop offset="1" stop-color="#353535"/>
</linearGradient>
<linearGradient id="paint7_linear_214_1010" x1="559.856" y1="202.208" x2="664.05" y2="366.482" gradientUnits="userSpaceOnUse">
<stop stop-color="#858585"/>
<stop offset="1" stop-color="#353535"/>
</linearGradient>
<linearGradient id="paint8_linear_214_1010" x1="510.558" y1="229.825" x2="510.558" y2="473.561" gradientUnits="userSpaceOnUse">
<stop stop-color="#858585"/>
<stop offset="1" stop-color="#353535"/>
</linearGradient>
<linearGradient id="paint9_linear_214_1010" x1="401.088" y1="422.443" x2="403.564" y2="423.321" gradientUnits="userSpaceOnUse">
<stop stop-color="#858585"/>
<stop offset="1" stop-color="#353535"/>
</linearGradient>
<linearGradient id="paint10_linear_214_1010" x1="293.081" y1="443.62" x2="295.256" y2="445.022" gradientUnits="userSpaceOnUse">
<stop stop-color="#858585"/>
<stop offset="1" stop-color="#353535"/>
</linearGradient>
</defs>
</svg>
